<?xml version="1.0" encoding="utf-8"?>
<!-- Generator: Adobe Illustrator 24.0.0, SVG Export Plug-In . SVG Version: 6.00 Build 0)  -->
<svg version="1.1" id="Camada_1" xmlns="http://www.w3.org/2000/svg" xmlns:xlink="http://www.w3.org/1999/xlink" x="0px" y="0px"
	 viewBox="0 0 180 59" style="enable-background:new 0 0 180 59;" xml:space="preserve">
<style type="text/css">
	.st0{fill:#FFFFFF;}
	.st1{font-family:'Raleway-ExtraBold';}
	.st2{font-size:38.5984px;}
	.st3{fill:#F5B64A;}
	.st4{font-size:23.9936px;}
</style>
<text transform="matrix(1 0 0 1 47.983 36.2205)" class="st0 st1 st2">ARAXÁ</text>
<text transform="matrix(1 0 0 1 44.6753 52.4622)" class="st3 st1 st4">sem corona</text>
<g>
	<g>
		<path class="st3" d="M24.86,38.92c0,0.58,0.07,1.02,0.68,1.24c0.34,0.12,0.44,0.49,0.3,0.86c-0.29,0.78-1.75,1.07-2.32,0.45
			c-0.29-0.32-0.27-0.65-0.02-0.99c0.32-0.45,0.32-2.02-0.07-2.3c-0.4-0.29-0.92-0.05-1.38-0.1c-0.37-0.04-0.35,0.3-0.42,0.52
			c-0.15,0.54-0.29,1.08-0.43,1.63c-0.18,0.73-0.54,1.38,0.31,2.08c0.66,0.54,0.34,1.51-0.44,1.98c-0.97,0.58-2.53,0.25-3.19-0.68
			c-0.59-0.84-0.31-1.82,0.7-2.17c0.51-0.18,0.69-0.43,0.75-0.93c0.09-0.81,0.24-1.61,0.39-2.41c0.16-0.87-0.7-0.6-1.02-0.93
			c-0.3-0.3-0.55-0.13-0.74,0.17c-0.39,0.62-1.21,1.09-0.71,2.03c0.03,0.06,0.01,0.17-0.03,0.25c-0.21,0.47-0.58,0.56-1.05,0.46
			c-0.7-0.15-1.34-0.78-1.31-1.35c0.03-0.52,0.35-0.72,0.84-0.75c0.39-0.02,1.47-1.15,1.43-1.61c-0.05-0.55-0.66-0.77-0.98-1.17
			c-0.14-0.17-0.3,0.01-0.44,0.09c-0.46,0.26-0.92,0.54-1.39,0.79c-0.64,0.34-1.24,0.59-1.11,1.59c0.1,0.8-0.74,1.25-1.55,1.03
			c-1.01-0.28-1.89-1.52-1.82-2.57c0.08-1.1,0.9-1.63,1.88-1.11c0.49,0.26,0.77,0.21,1.17-0.12c0.54-0.45,1.13-0.83,1.71-1.23
			c0.72-0.5-0.09-0.93-0.08-1.4c0.01-0.36-0.25-0.47-0.59-0.38c-0.7,0.19-1.6-0.1-1.97,0.9c-0.13,0.33-0.55,0.34-0.89,0.15
			c-0.67-0.36-0.91-1.57-0.43-2.16c0.37-0.45,0.76-0.38,1.17-0.05c0.33,0.27,1.98,0.15,2.26-0.15c0.33-0.36-0.02-1.66-0.49-1.79
			c-0.51-0.14-1.04-0.25-1.55-0.41c-0.74-0.22-1.38-0.45-2.07,0.31C9.4,29.32,8.45,29.01,8,28.23c-0.57-0.98-0.22-2.54,0.72-3.18
			c0.82-0.56,1.75-0.3,2.1,0.69c0.19,0.54,0.48,0.72,1.01,0.78c0.75,0.08,1.51,0.19,2.24,0.36c0.89,0.21,0.66-0.63,0.96-0.96
			c0.29-0.32,0.19-0.58-0.17-0.81c-0.62-0.39-1.08-1.15-2.03-0.7c-0.28,0.13-0.57-0.17-0.68-0.5c-0.25-0.72,0.52-1.85,1.28-1.87
			c0.57-0.01,0.77,0.34,0.8,0.87c0.02,0.4,1.37,1.48,1.75,1.43c0.55-0.08,1.13-1.23,0.86-1.71c-0.2-0.34-0.41-0.67-0.59-1.02
			c-0.37-0.67-0.62-1.36-1.69-1.24c-0.73,0.08-1.12-0.71-0.93-1.46c0.24-0.9,1.37-1.76,2.34-1.78c1.15-0.02,1.76,0.83,1.22,1.84
			c-0.26,0.48-0.15,0.76,0.12,1.11c0.38,0.49,0.77,0.97,1.08,1.5c0.29,0.5,0.6,0.55,1.09,0.3c0.47-0.24,1.13-0.24,0.85-1.1
			c-0.2-0.6,0.01-1.38-0.86-1.62c-0.07-0.02-0.13-0.11-0.16-0.18c-0.24-0.47-0.04-0.81,0.32-1.1c0.52-0.41,1.46-0.42,1.89-0.03
			c0.4,0.36,0.31,0.73,0.01,1.11c-0.26,0.33-0.17,1.97,0.12,2.26c0.33,0.34,1.69,0.01,1.81-0.45c0.2-0.7,0.37-1.41,0.57-2.11
			c0.19-0.66,0.43-1.21-0.33-1.82c-0.72-0.57-0.37-1.61,0.53-1.94c1-0.36,1.95-0.2,2.77,0.49c0.93,0.78,0.72,1.93-0.44,2.27
			c-0.53,0.15-0.63,0.41-0.69,0.86c-0.11,0.89-0.23,1.79-0.43,2.66c-0.21,0.86,0.56,0.73,0.92,1.02c0.39,0.31,0.59,0.07,0.8-0.24
			c0.38-0.59,1.16-1.04,0.66-1.94c-0.03-0.06,0-0.17,0.03-0.25c0.19-0.48,0.56-0.58,1.03-0.5c0.69,0.12,1.35,0.77,1.33,1.33
			c-0.01,0.52-0.32,0.74-0.82,0.76c-0.43,0.02-1.45,1.09-1.44,1.61c0.01,0.58,0.66,0.76,0.97,1.18c0.16,0.22,0.35-0.04,0.51-0.13
			c0.57-0.31,1.11-0.66,1.68-0.97c0.64-0.35,1.2-0.61,1.14-1.58c-0.06-0.88,0.87-1.37,1.77-1.15c1.1,0.27,1.97,1.62,1.76,2.74
			c-0.19,1.03-1.11,1.51-2.12,1.01c-0.43-0.21-0.69-0.18-1.04,0.09c-0.62,0.48-1.24,0.98-1.92,1.36c-0.89,0.5-0.23,1.03-0.13,1.56
			c0.12,0.66,0.59,0.36,0.93,0.32c0.64-0.08,1.38-0.01,1.63-0.85c0.03-0.09,0.16-0.16,0.26-0.2c0.49-0.18,0.81,0.1,1.06,0.46
			c0.39,0.57,0.32,1.53-0.11,1.88c-0.37,0.3-0.72,0.2-1.06-0.09c-0.33-0.27-1.98-0.14-2.26,0.16c-0.33,0.36,0.04,1.66,0.51,1.79
			c0.49,0.14,0.98,0.25,1.47,0.39c0.64,0.19,1.17,0.41,1.74-0.32c0.56-0.71,1.52-0.42,1.92,0.41c0.44,0.9,0.2,2.25-0.54,2.97
			c-0.78,0.76-1.82,0.59-2.13-0.45c-0.19-0.63-0.53-0.75-1.07-0.81c-0.61-0.06-1.23-0.17-1.83-0.29c-0.42-0.09-0.72-0.04-0.79,0.43
			c-0.06,0.39-0.67,0.82-0.29,1.09c0.58,0.42,0.98,1.4,2.01,0.95c0.1-0.04,0.23-0.05,0.33-0.03c0.5,0.11,0.68,0.45,0.63,0.94
			c-0.06,0.7-0.73,1.44-1.32,1.45c-0.51,0-0.76-0.28-0.81-0.78c-0.04-0.45-1.31-1.57-1.73-1.53c-0.52,0.05-1.12,1.24-0.85,1.7
			c0.24,0.41,0.5,0.82,0.71,1.24c0.31,0.61,0.6,1.07,1.47,1.01c0.91-0.07,1.37,0.78,1.07,1.66c-0.31,0.9-1.41,1.69-2.4,1.72
			c-1.18,0.03-1.79-0.85-1.24-1.9c0.24-0.46,0.2-0.73-0.1-1.1c-0.41-0.5-0.8-1.02-1.14-1.57c-0.28-0.45-0.55-0.44-1.03-0.32
			C24.7,37.68,24.54,38.18,24.86,38.92z"/>
		<path d="M22.89,30.92c-0.76,0.14-1.46-0.35-1.61-1.11c-0.14-0.77,0.34-1.46,1.1-1.6c0.77-0.14,1.47,0.34,1.61,1.1
			C24.13,30.07,23.64,30.78,22.89,30.92z"/>
		<path d="M25.42,34.97c-0.64,0.12-1.33-0.31-1.4-0.9c-0.07-0.64,0.29-1,0.89-1.1c0.65-0.11,1.3,0.32,1.41,1.01"/>
		<path d="M20.62,25.18c0.13,0.68-0.32,1.39-0.91,1.48c-0.6,0.09-0.97-0.2-1.08-0.78c-0.11-0.6,0.37-1.3,0.97-1.36
			C20.14,24.46,20.51,24.71,20.62,25.18z"/>
		<path d="M27.8,29.99c0.47-0.05,0.79,0.16,0.84,0.62c0.06,0.54-0.21,0.93-0.74,1.05c-0.46,0.1-0.78-0.17-0.83-0.61
			C27.01,30.53,27.28,30.15,27.8,29.99z"/>
		<path d="M17.99,32.17c-0.48-0.03-0.89-0.21-0.93-0.75c-0.04-0.46,0.26-0.74,0.72-0.77c0.54-0.03,0.96,0.2,0.99,0.78
			C18.79,31.91,18.44,32.11,17.99,32.17z"/>
		<path d="M26.25,25.45c0.04,0.46-0.15,0.77-0.6,0.86c-0.53,0.11-0.96-0.09-1.11-0.62c-0.12-0.44,0.14-0.75,0.59-0.85
			C25.67,24.72,26.04,24.95,26.25,25.45z"/>
	</g>
	<g>
		<path class="st0" d="M27.04,52.49c12.2-2.23,20.22-14.24,17.91-26.81C42.65,13.1,30.9,4.71,18.7,6.94S-1.51,21.18,0.79,33.75
			C3.09,46.33,14.84,54.72,27.04,52.49z M26.3,48.46c-4.16,0.76-8.26,0.02-11.76-1.84l20.67-30.94c2.93,2.73,5.05,6.43,5.84,10.72
			C42.94,36.74,36.34,46.62,26.3,48.46z M19.44,10.97c4.06-0.74,8.05-0.06,11.5,1.71L10.31,43.55c-2.82-2.71-4.86-6.33-5.62-10.51
			C2.8,22.69,9.4,12.81,19.44,10.97z"/>
	</g>
</g>
</svg>
